<?xml version="1.0" encoding="UTF-8" standalone="no"?>
<svg width="316px" height="80px" viewBox="0 0 316 80" version="1.1" xmlns="http://www.w3.org/2000/svg" xmlns:xlink="http://www.w3.org/1999/xlink" xmlns:sketch="http://www.bohemiancoding.com/sketch/ns">
    <!-- Generator: Sketch 3.4.4 (17249) - http://www.bohemiancoding.com/sketch -->
    <title>Slice 1</title>
    <desc>Created with Sketch.</desc>
    <defs></defs>
    <g id="Page-1" stroke="none" stroke-width="1" fill="none" fill-rule="evenodd" sketch:type="MSPage">
        <g id="logo_siwapp_def" sketch:type="MSLayerGroup" fill="#E25E35">
            <path d="M65.525,50.522 C67.774,57.911 69.488,58.981 75.698,58.981 C82.23,58.981 83.836,57.053 85.442,50.842 L93.153,20.108 L93.367,20.108 L101.078,50.842 C102.684,57.053 104.291,58.981 110.822,58.981 C117.033,58.981 118.747,57.911 120.995,50.522 L132.454,13.255 C132.989,11.542 133.525,9.828 133.525,7.472 C133.525,3.403 129.884,0.191 125.922,0.191 C120.139,0.191 119.175,3.295 118.211,7.794 L110.501,42.061 L110.287,42.061 L103.541,10.899 C102.148,4.688 100.648,-0.023 93.261,0.191 C85.978,-0.023 84.694,4.795 83.408,10.899 L76.769,42.061 L76.555,42.061 L65.525,50.522" id="Fill-2" sketch:type="MSShapeGroup"></path>
            <path d="M0.748,17.645 C0.748,28.141 7.815,31.887 16.918,34.137 L26.128,36.386 C31.697,37.778 35.123,38.42 35.123,42.383 C35.123,45.595 31.589,48.058 26.02,48.058 C14.454,48.058 13.812,38.42 7.065,38.42 C2.675,38.42 0.748,41.526 0.748,44.953 C0.748,52.662 12.528,58.981 26.662,58.981 C38.442,58.981 50.757,53.09 50.757,40.348 C50.757,29.425 40.156,25.677 31.268,23.642 L24.736,22.144 C19.917,21.072 16.383,20.216 16.383,16.575 C16.383,13.255 19.917,11.756 25.378,11.756 C35.229,11.756 35.443,18.931 41.548,18.931 C45.617,18.931 48.081,15.717 48.081,12.077 C48.081,4.902 36.087,0.191 24.2,0.191 C13.384,0.191 0.748,4.902 0.748,17.645" id="Fill-3" sketch:type="MSShapeGroup"></path>
            <path d="M188.979,16.253 C188.979,5.009 178.592,0.191 163.6,0.191 C147.537,0.191 138.756,8.114 138.756,14.325 C138.756,17.539 141.433,20.322 145.395,20.322 C151.606,20.322 151.928,11.756 163.492,11.756 C168.74,11.756 173.345,13.683 173.345,18.181 C173.345,22.678 170.346,23.536 166.598,23.964 L157.067,25.034 C145.073,26.427 135.222,30.067 135.222,43.025 C135.222,52.876 144.003,58.981 152.89,58.981 C161.137,58.981 168.204,56.625 174.309,49.878 C174.523,54.698 176.771,58.981 183.518,58.981 C187.265,58.981 190.585,56.519 190.585,52.984 C190.585,50.522 188.979,49.022 188.979,42.489 L188.979,16.253 L188.979,16.253 Z M173.345,37.35 C173.345,43.133 168.098,48.701 159.531,48.701 C154.176,48.701 150.856,45.809 150.856,42.275 C150.856,37.564 154.39,35.53 160.923,34.566 L166.598,33.708 C168.418,33.387 171.631,32.851 173.345,31.245 L173.345,37.35 L173.345,37.35 Z" id="Fill-4" sketch:type="MSShapeGroup"></path>
            <path d="M197.762,71.781 C197.762,76.922 200.868,79.598 205.579,79.598 C210.292,79.598 213.396,76.922 213.396,71.781 L213.396,50.898 L213.61,50.898 C216.503,55.931 221.857,58.823 229.032,58.823 C245.523,58.823 253.125,44.795 253.125,29.803 C253.125,9.563 241.668,0.033 228.602,0.033 C220.999,0.033 214.682,3.245 212.112,9.885 L211.898,9.885 L211.898,7.422 C211.898,2.603 209.435,0.033 204.829,0.033 C200.01,0.033 197.762,2.603 197.762,7.422 L197.762,71.781 L197.762,71.781 Z M237.491,29.267 C237.491,36.548 235.029,46.616 225.07,46.616 C215.538,46.722 212.54,37.298 212.54,29.267 C212.54,20.38 215.966,12.241 225.07,12.241 C233.423,12.455 237.491,20.058 237.491,29.267 L237.491,29.267 Z" id="Fill-5" sketch:type="MSShapeGroup"></path>
            <path d="M259.778,71.781 C259.778,76.922 262.884,79.598 267.595,79.598 C272.307,79.598 275.412,76.922 275.412,71.781 L275.412,50.898 L275.626,50.898 C278.518,55.931 283.873,58.823 291.048,58.823 C307.538,58.823 315.142,44.795 315.142,29.803 C315.142,9.563 303.684,0.033 290.618,0.033 C283.015,0.033 276.698,3.245 274.128,9.885 L273.914,9.885 L273.914,7.422 C273.914,2.603 271.451,0.033 266.845,0.033 C262.026,0.033 259.778,2.603 259.778,7.422 L259.778,71.781 L259.778,71.781 Z M299.507,29.267 C299.507,36.548 297.045,46.616 287.085,46.616 C277.554,46.722 274.556,37.298 274.556,29.267 C274.556,20.38 277.982,12.241 287.085,12.241 C295.438,12.455 299.507,20.058 299.507,29.267 L299.507,29.267 Z" id="Fill-6" sketch:type="MSShapeGroup"></path>
            <path d="M66.008,52.011 C67.368,55.96 70.174,58.844 75.946,56.857 C81.716,54.869 82.152,50.869 80.792,46.92 L75.289,29.902 C73.929,25.953 71.123,23.069 65.353,25.056 C59.581,27.043 59.145,31.043 60.505,34.992 L66.008,52.011" id="Fill-7" sketch:type="MSShapeGroup"></path>
            <path d="M52.309,10.665 C53.698,14.942 58.286,17.279 62.564,15.889 C66.841,14.5 69.178,9.912 67.789,5.635 C66.398,1.357 61.811,-0.98 57.534,0.409 C53.256,1.8 50.918,6.387 52.309,10.665" id="Fill-8" sketch:type="MSShapeGroup"></path>
        </g>
    </g>
</svg>